<?xml version="1.0" standalone="no"?>
<!DOCTYPE svg PUBLIC "-//W3C//DTD SVG 20010904//EN"
 "http://www.w3.org/TR/2001/REC-SVG-20010904/DTD/svg10.dtd">
<svg version="1.0" xmlns="http://www.w3.org/2000/svg"
 width="288.000000pt" height="288.000000pt" viewBox="0 0 288.000000 288.000000"
 preserveAspectRatio="xMidYMid meet">
<metadata>
Created by potrace 1.16, written by Peter Selinger 2001-2019
</metadata>
<g transform="translate(0.000000,288.000000) scale(0.050438,-0.051155)"
fill="#000000" stroke="none">
<path d="M0 2815 l0 -2815 2855 0 2855 0 0 2815 0 2815 -2855 0 -2855 0 0
-2815z m2480 1265 c0 -7 6 -7 19 0 31 16 61 12 61 -7 1 -17 1 -17 11 0 12 21
29 22 29 1 0 -9 7 -14 18 -13 33 5 128 -33 138 -55 5 -11 19 -22 31 -24 14 -2
25 -13 29 -27 4 -17 12 -24 28 -22 16 2 20 -3 19 -20 -2 -17 5 -24 35 -34 32
-10 34 -13 17 -20 -16 -6 -13 -8 15 -10 29 -1 31 -3 10 -7 -21 -4 -17 -7 25
-18 37 -10 136 -13 373 -14 l322 0 0 -240 0 -240 -60 -120 c-33 -66 -60 -124
-60 -130 0 -7 146 -10 430 -10 237 0 430 -2 430 -5 0 -3 -51 -106 -112 -230
l-113 -225 -437 0 -438 0 -74 -149 c-41 -82 -72 -151 -69 -155 4 -3 2 -6 -3
-6 -14 0 -11 -44 3 -62 7 -8 10 -18 6 -21 -3 -4 -2 -7 4 -7 5 0 10 -6 11 -12
3 -27 20 -92 21 -83 1 6 10 -12 19 -40 9 -27 14 -51 10 -53 -4 -2 1 -12 10
-23 9 -11 17 -28 18 -39 1 -18 0 -17 -31 3 -18 12 -68 45 -111 74 l-79 52
-157 -312 -157 -312 27 -23 c28 -24 102 -74 162 -110 19 -11 127 -67 240 -124
209 -105 453 -245 495 -284 13 -12 26 -20 28 -18 2 3 10 -3 18 -13 12 -15 12
-16 -1 -8 -25 16 -35 12 -45 -20 -8 -24 -7 -31 5 -36 11 -5 8 -9 -12 -18 -16
-6 -28 -15 -28 -21 0 -6 -4 -9 -9 -5 -5 3 -12 1 -16 -5 -3 -5 0 -10 7 -10 8 0
19 -5 25 -11 9 -9 6 -17 -12 -30 -29 -24 -37 -24 -55 1 -19 27 -30 8 -30 -52
0 -46 -1 -47 -34 -54 -19 -3 -40 -3 -45 1 -17 10 -51 -5 -51 -22 0 -10 -6 -14
-19 -10 -15 3 -18 1 -14 -11 4 -8 2 -13 -3 -10 -17 10 -54 -11 -54 -31 0 -22
-20 -40 -20 -19 -1 8 -8 5 -18 -8 -10 -12 -33 -29 -50 -38 -31 -16 -43 -36
-22 -36 19 0 10 -15 -20 -32 -29 -16 -30 -16 -30 2 0 11 -4 20 -10 20 -5 0 -6
-7 -3 -17 4 -11 3 -14 -5 -9 -7 4 -20 2 -29 -3 -10 -6 -12 -11 -5 -11 6 0 12
-10 12 -21 0 -17 -5 -20 -25 -17 -20 4 -23 3 -14 -8 6 -8 23 -14 38 -14 25 -1
25 -1 6 -16 -14 -10 -31 -13 -57 -9 -31 6 -37 3 -43 -14 -3 -12 -13 -21 -21
-21 -8 0 -14 -6 -14 -12 0 -10 -2 -10 -9 0 -7 11 -10 10 -15 -3 -3 -9 -6 -25
-6 -34 0 -16 -15 -20 -102 -29 -93 -9 -82 -10 112 -6 118 2 233 6 255 9 36 4
37 4 10 -5 -109 -35 -712 -35 -690 0 5 8 -18 20 -38 20 -7 0 -6 -4 3 -10 12
-8 9 -10 -13 -10 -16 0 -26 4 -23 8 2 4 -19 8 -48 8 -67 1 -206 32 -206 46 0
5 -6 8 -14 5 -15 -6 -102 17 -120 32 -6 5 -42 17 -81 26 -38 8 -76 22 -85 29
-8 7 -28 16 -43 20 -16 4 -25 11 -21 17 4 7 -1 9 -14 5 -14 -5 -27 0 -39 12
-10 11 -36 23 -57 26 -29 6 -36 10 -25 17 12 7 11 9 -2 9 -9 0 -22 7 -29 15
-7 9 -20 13 -28 10 -12 -4 -13 -3 -2 10 8 9 8 15 2 15 -6 0 -14 -4 -17 -10 -3
-5 -12 -10 -18 -9 -9 0 -9 2 1 6 19 8 14 22 -12 34 -14 7 -22 17 -19 25 7 20
23 17 23 -3 0 -15 2 -16 10 -3 6 9 6 18 0 24 -6 6 -10 18 -10 27 0 10 -5 19
-11 21 -6 2 -2 14 10 30 12 15 21 41 21 61 0 19 9 64 20 99 11 34 20 76 20 91
0 16 7 35 15 43 8 9 15 24 15 34 0 10 7 20 15 24 11 4 15 18 14 43 -1 21 2 55
6 76 6 27 4 37 -5 37 -10 0 -9 5 3 18 10 11 17 42 19 93 2 42 9 83 16 92 7 8
15 55 17 108 3 52 16 144 30 204 14 61 28 123 31 138 3 16 14 44 25 62 12 19
17 40 13 46 -4 8 -3 9 4 5 8 -5 12 3 12 22 0 16 7 35 16 43 8 7 13 21 11 30
-3 10 1 23 9 30 8 6 14 20 14 30 0 10 5 21 10 24 6 4 8 11 4 16 -3 6 1 18 9
27 18 20 17 42 -3 68 -14 18 -14 18 4 4 18 -14 19 -13 14 1 -5 13 -2 16 14 11
11 -2 22 -12 26 -21 3 -8 15 -25 27 -36 12 -11 68 -76 125 -145 57 -69 114
-136 126 -148 l23 -24 126 252 c69 139 124 258 122 264 -3 7 -97 59 -210 116
-184 93 -204 106 -193 122 6 11 18 16 28 12 12 -3 18 0 18 9 0 8 27 37 60 64
32 28 56 53 53 57 -4 3 2 6 12 6 10 0 27 8 37 17 15 14 21 15 27 4 7 -10 13
-11 31 -1 13 7 58 14 101 16 68 3 80 1 88 -15 6 -10 7 -21 4 -25 -3 -3 1 -6
10 -6 9 0 18 4 22 10 9 14 31 2 43 -24 11 -24 44 -33 35 -9 -4 9 0 11 13 6 12
-4 15 -3 10 5 -4 7 -2 12 4 12 6 0 8 5 5 10 -3 6 -1 10 6 10 7 0 9 10 7 24 -4
19 -1 23 11 19 12 -4 13 -3 6 5 -17 18 -191 41 -395 52 -262 14 -262 14 -283
53 -15 27 -16 50 -11 157 4 69 10 135 15 148 10 27 12 83 3 106 -5 13 -23 16
-95 16 l-89 0 0 235 0 235 113 0 c127 1 137 5 162 68 10 24 22 39 28 35 6 -4
8 2 5 15 -4 15 -2 22 7 22 8 0 17 9 20 21 9 29 41 59 63 59 9 0 23 9 30 20 7
12 17 18 22 15 6 -3 10 -2 10 4 0 10 22 18 58 20 12 0 22 -4 22 -9z"/>
</g>
</svg>
